<?xml version="1.0" encoding="utf-8"?>
<!-- Generator: Adobe Illustrator 22.1.0, SVG Export Plug-In . SVG Version: 6.00 Build 0)  -->
<svg version="1.1" id="Layer_1" xmlns="http://www.w3.org/2000/svg" xmlns:xlink="http://www.w3.org/1999/xlink" x="0px" y="0px"
	 viewBox="0 0 283.5 58.7" width="164" height="34" style="enable-background:new 0 0 283.5 58.7;" xml:space="preserve">
<style type="text/css">
	.st0{fill:#FFFFFF;}
</style>
<g>
	<path class="st0" d="M82.3,55.4c2.5,0,4.4-0.7,5.8-2c1.4-1.4,2.1-3.3,2.1-5.7v-2.4l-4,0.2c-3.2,0.1-5.5,0.6-6.9,1.5
		c-1.4,0.9-2.1,2.2-2.1,4.1c0,1.4,0.4,2.5,1.3,3.3C79.5,55.1,80.7,55.4,82.3,55.4 M91.3,58.2l-0.8-3.7h-0.2
		c-1.3,1.6-2.6,2.8-3.9,3.4c-1.3,0.6-2.9,0.9-4.9,0.9c-2.6,0-4.7-0.7-6.1-2c-1.5-1.3-2.2-3.3-2.2-5.7c0-5.3,4.3-8.1,12.8-8.4
		l4.5-0.1v-1.6c0-2.1-0.4-3.6-1.3-4.6c-0.9-1-2.3-1.5-4.3-1.5c-2.2,0-4.7,0.7-7.4,2l-1.2-3.1c1.3-0.7,2.7-1.3,4.3-1.7
		c1.5-0.4,3.1-0.6,4.6-0.6c3.1,0,5.5,0.7,7,2.1s2.3,3.6,2.3,6.7v18H91.3z"/>
	<path class="st0" d="M111.8,55.4c2.7,0,4.7-0.7,5.9-2.2c1.2-1.5,1.8-3.9,1.8-7.2v-0.8c0-3.7-0.6-6.4-1.9-8
		c-1.2-1.6-3.2-2.4-5.9-2.4c-2.3,0-4.1,0.9-5.4,2.7c-1.2,1.8-1.9,4.4-1.9,7.7c0,3.4,0.6,5.9,1.9,7.6
		C107.6,54.5,109.4,55.4,111.8,55.4 M119.8,54.7h-0.2c-1.8,2.7-4.6,4-8.3,4c-3.4,0-6.1-1.2-8-3.5c-1.9-2.4-2.9-5.7-2.9-10
		c0-4.3,1-7.7,2.9-10.1c1.9-2.4,4.6-3.6,8-3.6c3.6,0,6.3,1.3,8.2,3.9h0.3l-0.2-1.9l-0.1-1.8V20.9h4v37.4h-3.2L119.8,54.7z"/>
	<path class="st0" d="M137.9,58.2l-10-26.3h4.3l5.7,15.6c1.3,3.7,2,6,2.3,7.1h0.2c0.2-0.8,0.7-2.6,1.7-5.3c0.9-2.7,3-8.5,6.3-17.5
		h4.3l-10,26.3H137.9z"/>
	<path class="st0" d="M163.4,55.4c2.5,0,4.4-0.7,5.8-2c1.4-1.4,2.1-3.3,2.1-5.7v-2.4l-4,0.2c-3.2,0.1-5.5,0.6-6.9,1.5
		c-1.4,0.9-2.1,2.2-2.1,4.1c0,1.4,0.4,2.5,1.3,3.3C160.6,55.1,161.8,55.4,163.4,55.4 M172.4,58.2l-0.8-3.7h-0.2
		c-1.3,1.6-2.6,2.8-3.9,3.4c-1.3,0.6-2.9,0.9-4.9,0.9c-2.6,0-4.7-0.7-6.1-2c-1.5-1.3-2.2-3.3-2.2-5.7c0-5.3,4.3-8.1,12.8-8.4
		l4.5-0.1v-1.6c0-2.1-0.4-3.6-1.3-4.6c-0.9-1-2.3-1.5-4.3-1.5c-2.2,0-4.7,0.7-7.4,2l-1.2-3.1c1.3-0.7,2.7-1.3,4.3-1.7
		c1.5-0.4,3.1-0.6,4.6-0.6c3.1,0,5.5,0.7,7,2.1c1.5,1.4,2.3,3.6,2.3,6.7v18H172.4z"/>
	<path class="st0" d="M200.8,58.2v-17c0-2.1-0.5-3.7-1.5-4.8c-1-1.1-2.5-1.6-4.6-1.6c-2.8,0-4.8,0.7-6.1,2.2
		c-1.3,1.5-1.9,3.9-1.9,7.4v13.8h-4V31.9h3.2l0.6,3.6h0.2c0.8-1.3,2-2.3,3.4-3c1.5-0.7,3.1-1.1,4.9-1.1c3.2,0,5.6,0.8,7.2,2.3
		c1.6,1.5,2.4,4,2.4,7.3v17.2H200.8z"/>
	<path class="st0" d="M222.9,58.7c-3.8,0-6.8-1.2-8.9-3.5c-2.1-2.3-3.1-5.7-3.1-10c0-4.4,1.1-7.8,3.2-10.2c2.1-2.4,5.1-3.6,9.1-3.6
		c1.3,0,2.5,0.1,3.8,0.4c1.3,0.3,2.3,0.6,3,1l-1.2,3.4c-0.9-0.4-1.8-0.6-2.9-0.9c-1-0.2-2-0.3-2.8-0.3c-5.3,0-8,3.4-8,10.2
		c0,3.2,0.7,5.7,2,7.4c1.3,1.7,3.2,2.6,5.8,2.6c2.2,0,4.4-0.5,6.7-1.4v3.5C227.7,58.3,225.5,58.7,222.9,58.7"/>
	<path class="st0" d="M244.6,34.8c-2.1,0-3.8,0.7-5.1,2.1c-1.3,1.4-2,3.3-2.2,5.7h13.8c0-2.5-0.6-4.4-1.7-5.8
		C248.3,35.4,246.7,34.8,244.6,34.8 M245.7,58.7c-3.9,0-7-1.2-9.2-3.6c-2.3-2.4-3.4-5.7-3.4-9.9c0-4.2,1-7.6,3.1-10.1
		c2.1-2.5,4.9-3.7,8.4-3.7c3.3,0,5.9,1.1,7.8,3.3c1.9,2.2,2.9,5,2.9,8.6v2.5h-18.1c0.1,3.1,0.9,5.4,2.3,7c1.5,1.6,3.6,2.4,6.3,2.4
		c2.8,0,5.6-0.6,8.4-1.8V57c-1.4,0.6-2.7,1-4,1.3C249,58.6,247.5,58.7,245.7,58.7"/>
	<path class="st0" d="M271.7,55.4c2.7,0,4.7-0.7,5.9-2.2c1.2-1.5,1.8-3.9,1.8-7.2v-0.8c0-3.7-0.6-6.4-1.9-8
		c-1.2-1.6-3.2-2.4-5.9-2.4c-2.3,0-4.1,0.9-5.4,2.7c-1.2,1.8-1.9,4.4-1.9,7.7c0,3.4,0.6,5.9,1.9,7.6
		C267.5,54.5,269.3,55.4,271.7,55.4 M279.7,54.7h-0.2c-1.8,2.7-4.6,4-8.3,4c-3.4,0-6.1-1.2-8-3.5c-1.9-2.4-2.9-5.7-2.9-10
		c0-4.3,1-7.7,2.9-10.1c1.9-2.4,4.6-3.6,8-3.6c3.6,0,6.3,1.3,8.2,3.9h0.3l-0.2-1.9l-0.1-1.8V20.9h4v37.4h-3.2L279.7,54.7z"/>
</g>
<polygon class="st0" points="33.9,0 0,58.7 18,58.7 33.9,31.1 49.9,58.7 67.8,58.7 "/>
</svg>
