<?xml version="1.0" encoding="UTF-8"?>
<svg xmlns="http://www.w3.org/2000/svg" xmlns:xlink="http://www.w3.org/1999/xlink" width="64pt" height="64pt" viewBox="0 0 64 64" version="1.1">
<g id="surface1">
<path style=" stroke:none;fill-rule:nonzero;fill:#FFFFFF;fill-opacity:1;" d="M 38 6 C 26.976563 6 18 14.976563 18 26 C 18 30.796875 19.703125 35.195313 22.53125 38.648438 L 6.585938 54.585938 L 9.414063 57.414063 L 25.351563 41.46875 C 28.804688 44.296875 33.203125 46 38 46 C 49.023438 46 58 37.023438 58 26 C 58 14.976563 49.023438 6 38 6 Z M 38 10 C 46.859375 10 54 17.140625 54 26 C 54 34.859375 46.859375 42 38 42 C 29.140625 42 22 34.859375 22 26 C 22 17.140625 29.140625 10 38 10 Z M 32 20 C 30.898438 20 30 20.898438 30 22 C 30 23.101563 30.898438 24 32 24 C 33.101563 24 34 23.101563 34 22 C 34 20.898438 33.101563 20 32 20 Z M 44 20 C 42.898438 20 42 20.898438 42 22 C 42 23.101563 42.898438 24 44 24 C 45.101563 24 46 23.101563 46 22 C 46 20.898438 45.101563 20 44 20 Z M 38 28 C 33.585938 28 30.6875 30.492188 30.6875 30.492188 C 30.125 30.945313 29.859375 31.679688 29.992188 32.398438 C 30.117188 33.109375 30.632813 33.703125 31.320313 33.929688 C 32.007813 34.164063 32.773438 34 33.3125 33.507813 C 33.3125 33.507813 35.03125 32 38 32 C 40.96875 32 42.6875 33.507813 42.6875 33.507813 C 43.226563 34 43.992188 34.164063 44.679688 33.929688 C 45.367188 33.703125 45.882813 33.109375 46.007813 32.398438 C 46.140625 31.679688 45.875 30.945313 45.3125 30.492188 C 45.3125 30.492188 42.414063 28 38 28 Z "/>
</g>
</svg>
